<?xml version="1.0" encoding="UTF-8"?>
<svg version="1.1" xmlns="http://www.w3.org/2000/svg" width="128" height="128">
<path d="M0 0 C42.24 0 84.48 0 128 0 C128 42.24 128 84.48 128 128 C85.76 128 43.52 128 0 128 C0 85.76 0 43.52 0 0 Z " fill="#FFBD5A" transform="translate(0,0)"/>
<path d="M0 0 C0.7940625 0.43570312 1.588125 0.87140625 2.40625 1.3203125 C11.72042507 7.00195929 18.71100077 15.60700281 21.609375 26.234375 C23.46112351 39.34475444 23.0614253 51.78131695 14.98046875 62.73828125 C7.50209552 71.57873997 -1.52227789 77.74437809 -13 80 C-26.58499734 80.77971287 -37.79501789 79.43942124 -49 71 C-57.65251379 63.27060472 -63.44207264 53.20427613 -64.23828125 41.49609375 C-64.62006671 27.68875436 -61.47162955 17.50044449 -52 7 C-48.8647566 4.23873171 -45.62704191 2.0629852 -42 0 C-41.30003906 -0.433125 -40.60007812 -0.86625 -39.87890625 -1.3125 C-28.73240894 -7.034766 -10.78675565 -5.94749198 0 0 Z " fill="#FFFDFC" transform="translate(85,26)"/>
<path d="M0 0 C1.99702945 -0.00966383 3.99391692 -0.04085079 5.99072266 -0.07226562 C14.40443948 -0.10636377 20.05546026 0.02264238 26.58056641 5.67773438 C31.84041298 11.83926893 31.14038319 18.13715358 31.13867188 25.88427734 C31.1430391 28.10137096 31.17936268 30.3164622 31.21728516 32.53320312 C31.22315535 33.95376928 31.22712339 35.37434483 31.22900391 36.79492188 C31.23722168 38.07866699 31.24543945 39.36241211 31.25390625 40.68505859 C30.52888512 45.99046446 28.11374828 49.02583854 24.20556641 52.55273438 C20.06537352 55.41902176 16.32434933 55.42633044 11.46728516 55.47851562 C10.39629326 55.49062325 10.39629326 55.49062325 9.30366516 55.50297546 C7.79320691 55.51679318 6.28271773 55.52752567 4.7722168 55.53540039 C3.23306076 55.54691689 1.69394455 55.56736385 0.1550293 55.59692383 C-2.07449346 55.63973947 -4.30283127 55.65578759 -6.53271484 55.66601562 C-7.21417068 55.68352371 -7.89562653 55.7010318 -8.59773254 55.71907043 C-13.60229762 55.69656451 -16.36665556 54.3423069 -20.23193359 51.24023438 C-25.9982517 44.69468409 -25.48220662 39.16767277 -25.52709961 30.80200195 C-25.54423657 28.5783006 -25.58811009 26.35611636 -25.63232422 24.1328125 C-25.64245846 22.7063911 -25.65097227 21.27995709 -25.65771484 19.85351562 C-25.67229736 18.56227783 -25.68687988 17.27104004 -25.7019043 15.94067383 C-24.96916373 10.1712459 -22.84147111 6.48844714 -18.16943359 2.86523438 C-12.21722368 -0.42747749 -6.66211638 0.01950363 0 0 Z " fill="#FF3232" transform="translate(61.23193359375,35.759765625)"/>
<path d="M0 0 C14.19 0 28.38 0 43 0 C43 0.33 43 0.66 43 1 C41.78376953 1.22042969 41.78376953 1.22042969 40.54296875 1.4453125 C27.95952939 3.99422804 18.09407801 8.80237629 10 19 C4.9443811 26.62692794 1.89594716 33.87596668 1 43 C0.67 43 0.34 43 0 43 C0 28.81 0 14.62 0 0 Z " fill="#FFFDFA" transform="translate(0,0)"/>
<path d="M0 0 C0.33 0 0.66 0 1 0 C1 14.19 1 28.38 1 43 C-12.2 43 -25.4 43 -39 43 C-36.18666571 41.12444381 -34.05212013 40.28188517 -30.875 39.25 C-25.25937395 37.24230256 -20.69163176 34.66589478 -16 31 C-15.38382813 30.52175781 -14.76765625 30.04351562 -14.1328125 29.55078125 C-5.91539041 22.30118887 -1.20907956 10.70899037 0 0 Z " fill="#FFFDFB" transform="translate(127,85)"/>
<path d="M0 0 C13.2 0 26.4 0 40 0 C40 14.19 40 28.38 40 43 C39.67 43 39.34 43 39 43 C38.85304687 42.18917969 38.70609375 41.37835938 38.5546875 40.54296875 C36.03042377 28.08123001 31.26230136 17.89751017 21 10 C14.42244297 5.91077803 7.4786194 2.96956007 0 1 C0 0.67 0 0.34 0 0 Z " fill="#FFFDFB" transform="translate(88,0)"/>
<path d="M0 0 C0.33 0 0.66 0 1 0 C1.14695313 0.81082031 1.29390625 1.62164062 1.4453125 2.45703125 C3.98897311 15.01452815 8.79029452 24.94449687 19 33 C25.41404773 37.06611753 31.67381927 40.09002593 39 42 C39 42.33 39 42.66 39 43 C26.13 43 13.26 43 0 43 C0 28.81 0 14.62 0 0 Z " fill="#FFFDFB" transform="translate(0,85)"/>
</svg>
